<?xml version="1.0" encoding="utf-8"?>
<svg version="1.0" id="katman_1" xmlns="http://www.w3.org/2000/svg" xmlns:xlink="http://www.w3.org/1999/xlink" x="0px" y="0px"
	 viewBox="0 0 643.25 509.25" style="enable-background:new 0 0 643.25 509.25;" xml:space="preserve">
<style type="text/css">
	.st0{fill:#FFFFFF;}
	.st1{fill:#E31D23;}
</style>
<g id="Layer_2">
	<g id="Layer_1-2">
		<circle class="st0" cx="321.63" cy="254.63" r="188.13"/>
		<path class="st1" d="M321.63,74c99.76,0,180.63,80.87,180.63,180.63s-80.87,180.63-180.63,180.63S141,354.39,141,254.63
			c0,0,0,0,0,0C141,154.87,221.87,74,321.63,74 M321.63,59c-108.01-0.1-195.65,87.38-195.75,195.39
			c-0.05,52,20.61,101.88,57.42,138.61c76.48,76.31,200.35,76.18,276.66-0.3s76.18-200.35-0.3-276.66
			c-17.76-17.72-38.77-31.87-61.88-41.65C373.69,64.18,347.79,58.95,321.63,59z"/>
		<polygon class="st1" points="302.52,119.73 379.14,119.73 379.14,98.44 238.67,98.44 238.67,119.73 278.65,119.73 278.65,357.11 
			302.52,357.11 		"/>
		<polygon class="st1" points="403.8,332.84 439.41,284.71 417.11,284.71 380.65,326.19 379.14,326.19 379.14,124.76 353.59,124.76 
			353.59,412.88 379.14,412.88 379.14,336.75 380.72,336.75 418.87,383.71 443.91,383.71 		"/>
		<path class="st1" d="M320.12,124.76v162.12c-3.21-3.47-12.49-6.24-12.49-6.24v22.87c8.78,3,12.49,9,12.49,9v36.29
			c0,0-15.49,25.88-46.23,15c-24.95-10.63-18.71-40.9-18.71-40.9s2.31-13.63,17.79-20.56l-0.23-21c0,0-34.2,9.7-37.43,40.2
			c-3.23,30.5,10.62,44.83,10.62,44.83s29.85,39.05,74.19,9.24v37.28H344V124.76H320.12z"/>
		<path class="st1" d="M278.15,412.19h23.35v-22.94c-7.64,2.1-15.71,2.1-23.35,0V412.19z"/>
		<path class="st1" d="M179.13,270.89h-6v-22.52c-2.21,2.06-4.85,3.6-7.73,4.53v-5.43c1.85-0.67,3.57-1.65,5.09-2.9
			c1.71-1.27,3.02-3,3.76-5h4.85L179.13,270.89z"/>
		<path class="st1" d="M187.28,263.68l5.79-0.64c0.05,0.97,0.44,1.9,1.1,2.62c0.64,0.59,1.49,0.89,2.36,0.85
			c1.27-0.01,2.44-0.65,3.15-1.7c0.87-1.13,1.42-3.49,1.66-7.06c-1.38,1.69-3.46,2.65-5.64,2.61c-2.43,0.01-4.74-1.02-6.35-2.84
			c-1.83-2.02-2.79-4.67-2.67-7.39c-0.13-2.83,0.89-5.58,2.82-7.65c4.03-3.95,10.49-3.88,14.44,0.15c0.2,0.2,0.38,0.41,0.56,0.62
			c2,2.45,3,6.47,3,12.07c0,5.7-1.06,9.81-3.17,12.34c-2.01,2.48-5.06,3.88-8.25,3.79c-2.15,0.1-4.25-0.6-5.92-1.95
			C188.54,267.96,187.52,265.9,187.28,263.68z M200.81,250.62c0.1-1.61-0.37-3.2-1.33-4.49c-0.72-0.98-1.86-1.56-3.07-1.59
			c-1.07-0.02-2.09,0.46-2.76,1.3c-0.84,1.27-1.22,2.78-1.09,4.29c-0.13,1.57,0.29,3.14,1.19,4.44c1.32,1.64,3.72,1.89,5.36,0.56
			c0.19-0.15,0.36-0.33,0.52-0.51C200.49,253.47,200.91,252.05,200.81,250.62z"/>
		<path class="st1" d="M210.25,262.62l5.79-0.7c0.09,1.27,0.62,2.46,1.49,3.38c0.78,0.77,1.84,1.19,2.93,1.17
			c1.2,0.02,2.34-0.5,3.12-1.41c0.89-1.05,1.34-2.4,1.27-3.78c0.07-1.31-0.37-2.59-1.22-3.58c-0.74-0.85-1.82-1.33-2.95-1.31
			c-0.93,0.02-1.86,0.17-2.75,0.44l0.66-4.87c1.32,0.13,2.64-0.25,3.7-1.05c0.86-0.75,1.33-1.86,1.28-3c0.12-1.78-1.22-3.32-3-3.45
			c-0.14-0.01-0.28-0.01-0.42,0c-0.98-0.02-1.93,0.37-2.62,1.07c-0.79,0.85-1.25,1.95-1.32,3.1l-5.51-0.93
			c0.27-1.61,0.86-3.14,1.73-4.52c0.82-1.17,1.94-2.09,3.24-2.66c1.46-0.68,3.04-1.02,4.65-1c2.65-0.11,5.21,0.91,7.06,2.81
			c1.39,1.37,2.18,3.24,2.19,5.19c0,2.74-1.5,4.92-4.49,6.55c1.69,0.32,3.21,1.23,4.29,2.57c1.08,1.37,1.65,3.08,1.6,4.83
			c0.04,2.65-1.05,5.2-3,7c-4.06,3.69-10.19,3.88-14.48,0.46C211.64,267.32,210.48,265.06,210.25,262.62z"/>
		<path class="st1" d="M254,265.34v5.55h-21c0.21-2.12,0.89-4.17,2-6c1.91-2.77,4.17-5.29,6.72-7.48c1.81-1.56,3.48-3.27,5-5.11
			c0.77-1.07,1.21-2.34,1.24-3.66c0.07-1.13-0.32-2.24-1.08-3.07c-1.71-1.46-4.23-1.46-5.94,0c-0.85,1.06-1.3,2.39-1.28,3.75l-6-0.6
			c0.35-3.29,1.46-5.65,3.34-7.08c2.03-1.48,4.49-2.24,7-2.15c2.65-0.15,5.25,0.74,7.25,2.49c1.73,1.59,2.69,3.84,2.64,6.19
			c0.01,1.37-0.25,2.73-0.76,4c-0.6,1.44-1.41,2.79-2.39,4c-1.21,1.43-2.52,2.77-3.92,4c-1.88,1.73-3.08,2.87-3.58,3.44
			c-0.46,0.51-0.87,1.07-1.22,1.66L254,265.34z"/>
	</g>
</g>
</svg>
